<?xml version="1.0" encoding="utf-8"?>
<!-- Generator: Adobe Illustrator 27.5.0, SVG Export Plug-In . SVG Version: 6.00 Build 0)  -->
<svg version="1.1" xmlns="http://www.w3.org/2000/svg" xmlns:xlink="http://www.w3.org/1999/xlink" x="0px" y="0px"
	 viewBox="0 0 500 500" style="disenable-background:new 0 0 500 500;" xml:space="preserve">
<g id="BACKGROUND">
	<rect y="0" style="fill:transparent;" width="500" height="500"/>
</g>
<g id="OBJECTS">
	<g>
		<path style="opacity:0.39;fill:#D3E2F5;" d="M64.015,346.029c-17.226-28.892-32.363-60.732-39.863-92.14
			C0.317,154.068,129.944,34.154,227.12,98.323c6.353,4.195,13.007,7.964,19.957,10.899c53.906,22.757,84.298-23.12,131.035-35.317
			c20.61-5.379,39.767-0.352,56.745,10.79c46.768,30.692,57.648,94.743,24.899,140.094l-7.448,10.314
			c-50.513,69.949-116.846,126.966-193.589,166.401l0,0C189.335,437.157,103.965,413.032,64.015,346.029z"/>
		<path style="fill:#D3E2F5;" d="M48.937,411.334c-8.662,0.029-24.418-57.672-26.131-64.162
			c-14.469-54.829-10.228-157.69,56.26-172.756c47.107-10.675,95.2,16.074,132.591-28.934c4.821-5.803,8.994-12.212,12.705-18.859
			c56.755-101.685,227.019-54.86,251.785,44.733S459.192,409.92,459.192,409.92S49.17,411.333,48.937,411.334z"/>
		<g>
			<path style="fill:#BAC9E6;" d="M458.002,430.263H41.998c-5.902,0-10.686-4.784-10.686-10.686l0,0
				c0-5.902,4.784-10.686,10.686-10.686h416.004c5.902,0,10.686,4.784,10.686,10.686l0,0
				C468.688,425.478,463.904,430.263,458.002,430.263z"/>
			<path style="fill:#A4A4E0;" d="M458.002,427.167H41.998c-5.375,0-9.81-3.972-10.561-9.138c-0.074,0.507-0.125,1.021-0.125,1.548
				c0,5.902,4.784,10.686,10.686,10.686h416.004c5.902,0,10.686-4.784,10.686-10.686c0-0.527-0.051-1.041-0.125-1.548
				C467.812,423.195,463.377,427.167,458.002,427.167z"/>
			<g>
				<path style="fill:#FF5D6C;" d="M375.305,301.584c-7.619-2.181-19.007-4.781-27.206-3.737l-0.801-8.231
					c0,0-15.556,1.505-24.458,0.964l-1.491,8.243c0,0-21.062,0.189-30.695,8.139v0l-0.002,0.001
					c-0.636,0.525-1.218,1.085-1.744,1.679c-5.114,5.055-20.307,21.061-29.14,40.934l23.04,12.2l0.024-0.17
					c-0.134,18.717,0.354,47.284,0.354,47.284l100.293,0.884v-44.581l30.257-15.128c-6.044-16.663-17.558-31.576-24.507-39.614
					C385.548,306.194,380.715,303.133,375.305,301.584z"/>
				<path style="fill:#FAC9A3;" d="M385.236,364.314c2.841,6.752,5.682,13.505,8.522,20.257
					c-15.062,3.887-30.124,7.774-45.186,11.661c-6.622,1.709-13.42,3.432-20.219,2.697c-6.055-0.654-11.831-3.24-17.919-3.412
					c-9.69-0.274-18.887,5.95-23.6,14.42c29.557-0.188,59.117-0.377,88.669,0.189c8.591,0.164,17.309,0.379,25.635-1.746
					c6.074-1.55,12.677-4.394,17.143-9.031c6.467-6.716,3.404-13.311,0.25-20.831c-2.941-7.01-5.881-14.019-8.821-21.03
					c-1.109-2.645-0.865-4.167-3.543-3.641c-2.253,0.442-4.913,2.457-6.979,3.49C394.537,359.664,389.887,361.989,385.236,364.314z"
					/>
				<g>
					<path style="fill:#FAC9A3;" d="M347.996,296.796l-0.698-7.18c0,0-15.556,1.505-24.458,0.964l-1.491,8.243
						c0,0-0.112,0.001-0.322,0.006C325.796,309.204,341.747,308.527,347.996,296.796z"/>
					<path style="fill:#FB9C81;" d="M321.527,290.245c0,0,13.095,4.155,25.771-0.628l0.705,7.248
						C348.003,296.864,333.672,302,321.527,290.245z"/>
				</g>
				<g>
					<g>
						<path style="fill:#FAC9A3;" d="M382.739,241.818c0.084-0.437,0.173-0.874,0.25-1.311c4.336-24.36,3.368-53.945-17.978-70.045
							c-17.957-13.545-47.429-13.315-65.221,0.825c-20.932,16.635-21.151,46.235-16.201,70.478c0.089,0.436,0.189,0.87,0.284,1.305
							c-3.804,1.051-6.449,4.682-6.112,8.76c0.237,2.873,1.931,5.331,4.503,6.618c2.169,1.086,4.564,1.077,6.93,1.159
							c2.751,6.243,6.304,12.087,10.788,17.186c17.926,20.384,50.077,20.003,67.505-0.854c4.353-5.21,7.758-11.143,10.35-17.453
							c2.364-0.141,4.758-0.194,6.899-1.334c2.538-1.352,4.17-3.852,4.334-6.73C389.304,246.335,386.569,242.772,382.739,241.818z"
							/>
						<g>
							<g>
								<g>
									<g>
										<path style="fill:#FFFFFF;" d="M320.074,248.058c0.724-0.293,1.208-0.988,1.246-1.768
											c0.189-3.869-0.214-15.19-11.259-16.098c-11.278-0.927-12.811,12.122-13.016,16.18c-0.039,0.764,0.35,1.478,1.018,1.852
											C300.717,249.712,308.339,252.812,320.074,248.058z"/>
										<g>
											<path style="fill:#0A2D4D;" d="M314.136,231.151c-2.215-0.69-4.553-0.722-6.723-0.386
												c-2.176,0.373-4.138,1.478-5.572,3.121c-1.468,1.619-2.461,3.674-3.19,5.808c-0.716,2.147-1.24,4.386-1.605,6.678
												c-0.116-2.319,0.09-4.671,0.678-6.956c0.569-2.281,1.569-4.527,3.193-6.356c0.416-0.447,0.829-0.895,1.338-1.248
												l0.728-0.561l0.813-0.435c0.277-0.13,0.534-0.307,0.828-0.395l0.875-0.276c0.573-0.227,1.183-0.268,1.782-0.336
												c0.3-0.024,0.598-0.091,0.897-0.078l0.895,0.048c0.596,0.037,1.187,0.06,1.764,0.191
												C311.988,230.221,313.124,230.57,314.136,231.151z"/>
										</g>
									</g>
									<g>
										<circle style="fill:#0A2D4D;" cx="312.245" cy="242.046" r="6.826"/>
										<circle style="fill:#FFFFFF;" cx="308.72" cy="238.995" r="1.865"/>
										<circle style="fill:#FFFFFF;" cx="309.977" cy="241.771" r="0.831"/>
									</g>
								</g>
								<g>
									<g>
										<path style="fill:#FFFFFF;" d="M346.676,247.722c-0.731-0.275-1.232-0.957-1.29-1.736
											c-0.286-3.863-0.17-15.191,10.849-16.378c11.25-1.212,13.114,11.794,13.421,15.846c0.058,0.763-0.313,1.486-0.971,1.877
											C366.069,248.886,358.528,252.177,346.676,247.722z"/>
										<g>
											<path style="fill:#0A2D4D;" d="M352.185,230.669c0.996-0.606,2.124-0.984,3.269-1.264
												c0.574-0.146,1.164-0.184,1.759-0.236l0.894-0.07c0.299-0.021,0.598,0.039,0.899,0.055
												c0.601,0.053,1.212,0.079,1.79,0.291l0.881,0.254c0.296,0.08,0.557,0.251,0.837,0.374l0.824,0.414l0.742,0.542
												c0.517,0.339,0.942,0.777,1.369,1.214c1.669,1.788,2.726,4.008,3.352,6.274c0.645,2.269,0.911,4.615,0.853,6.936
												c-0.423-2.282-1.004-4.507-1.774-6.635c-0.783-2.115-1.827-4.144-3.336-5.726c-1.475-1.607-3.465-2.661-5.65-2.979
												C356.718,229.832,354.382,229.924,352.185,230.669z"/>
										</g>
									</g>
									<g>
										<circle style="fill:#0A2D4D;" cx="354.646" cy="241.51" r="6.826"/>
										<circle style="fill:#FFFFFF;" cx="351.12" cy="238.458" r="1.865"/>
										<circle style="fill:#FFFFFF;" cx="352.378" cy="241.235" r="0.831"/>
									</g>
								</g>
							</g>
							<g>
								<path style="fill:#FB9C81;" d="M327.716,253.288c0.502-0.998,1.305-1.837,2.253-2.481c0.948-0.649,2.103-1.047,3.289-1.109
									c1.177-0.026,2.386,0.196,3.379,0.788c0.53,0.229,0.947,0.638,1.402,0.959c0.407,0.389,0.783,0.805,1.125,1.236
									c-0.521-0.221-0.982-0.496-1.46-0.727l-0.729-0.306c-0.237-0.109-0.471-0.216-0.723-0.273
									c-0.247-0.071-0.488-0.145-0.725-0.23l-0.737-0.13c-0.242-0.062-0.488-0.067-0.733-0.079
									c-0.245-0.015-0.49-0.038-0.733,0.001C331.35,251.004,329.484,251.988,327.716,253.288z"/>
							</g>
							<g>
								<g>
									<path style="fill:#FDB300;" d="M347.254,225.668c1.229-1.598,2.935-2.624,4.732-3.302c1.801-0.706,3.756-1.019,5.698-0.945
										c1.937,0.08,3.885,0.454,5.631,1.306c1.77,0.759,3.345,1.957,4.544,3.508l-0.115,0.22
										c-1.607-0.723-3.232-1.407-4.939-1.824c-1.691-0.474-3.447-0.676-5.194-0.729c-1.75-0.083-3.51,0.069-5.232,0.402
										c-1.717,0.343-3.421,0.845-5.005,1.581L347.254,225.668z"/>
								</g>
								<g>
									<path style="fill:#FDB300;" d="M318.824,226.247c-1.602-0.696-3.319-1.155-5.044-1.454c-1.73-0.29-3.493-0.397-5.24-0.27
										c-1.745,0.097-3.495,0.344-5.173,0.86c-1.696,0.46-3.303,1.185-4.891,1.948l-0.12-0.217
										c1.159-1.58,2.704-2.818,4.454-3.621c1.724-0.896,3.662-1.319,5.596-1.448c1.939-0.124,3.902,0.141,5.72,0.8
										c1.813,0.632,3.545,1.615,4.814,3.181L318.824,226.247z"/>
								</g>
							</g>
							<g>
								
									<ellipse transform="matrix(0.9999 -0.0126 0.0126 0.9999 -3.2228 3.8135)" style="opacity:0.6;fill:#FB9C81;" cx="299.955" cy="256.764" rx="7.823" ry="4.366"/>
								
									<ellipse transform="matrix(0.9999 -0.0126 0.0126 0.9999 -3.2067 4.6613)" style="opacity:0.6;fill:#FB9C81;" cx="367.009" cy="255.916" rx="7.823" ry="4.366"/>
							</g>
							<g>
								<path style="fill:#0A2D4D;" d="M349.927,261.812c-10.941-1.851-21.856-1.713-32.747,0.414
									c-0.46,0.29-0.736,0.839-0.634,1.421c2.445,13.857,17.199,13.575,17.199,13.575s14.757-0.091,16.851-14.005
									C350.685,262.632,350.394,262.091,349.927,261.812z"/>
								<g>
									<defs>
										<path id="SVGID_1_" d="M349.927,261.812c-10.941-1.851-21.856-1.713-32.747,0.414c-0.46,0.29-0.736,0.839-0.634,1.421
											c2.445,13.857,17.199,13.575,17.199,13.575s14.757-0.091,16.851-14.005C350.685,262.632,350.394,262.091,349.927,261.812z
											"/>
									</defs>
									<clipPath id="SVGID_00000163757177699726834310000006600461834904433060_">
										<use xlink:href="#SVGID_1_"  style="overflow:visible;"/>
									</clipPath>
									<path style="clip-path:url(#SVGID_00000163757177699726834310000006600461834904433060_);fill:#FFFFFF;" d="
										M339.588,265.52l-11.978,0.151c-1.981,0.025-3.806-1.095-4.715-2.892l-1.063-2.103l23.407-0.296l-1.01,2.129
										C343.366,264.329,341.569,265.495,339.588,265.52z"/>
									
										<ellipse transform="matrix(0.9999 -0.0126 0.0126 0.9999 -3.4469 4.2418)" style="clip-path:url(#SVGID_00000163757177699726834310000006600461834904433060_);fill:#FE7D7E;" cx="333.714" cy="274.696" rx="10.387" ry="4.24"/>
								</g>
							</g>
						</g>
					</g>
					<g>
						<g>
							<path style="fill:#FDB300;" d="M406.348,242.378c2.88-45.755-7.824-56.852-16.459-58.636
								c-2.273,0.492-3.758,1.303-3.758,1.303l0.256,16.655c0.826,0.555,1.78,0.561,2.485,1.395c1.521,1.8,1.313,5.541,1.335,7.725
								c0.066,6.771-1.164,13.35-1.224,20.077c-0.063,6.973,1.348,14.287,4.25,20.649c0.586,1.284,1.21,2.544,1.92,3.738
								c1.549,2.607,3.548,5.686,5.935,7.357c0.201,0.14,0.575,0.386,0.945,0.579c0.731,0.381,1.44,0.552,0.734-0.732
								c-3.288-5.981-3.808-13.793-4.216-20.549c2.493,5.588,3.802,11.779,6.949,17.185c1.989,3.416,4.804,6.982,8.068,9.29
								C406.005,257.882,406.348,242.378,406.348,242.378z"/>
							<path style="fill:#FF5D6C;" d="M389.782,187.047c-0.043-0.132-0.094-0.25-0.139-0.378c-5-14.269-20.957-8.656-20.957-8.656
								l7.413,28.196l1.259,4.789C386.523,210.216,394.648,201.806,389.782,187.047z"/>
						</g>
						<g>
							<path style="fill:#FDB300;" d="M257.184,244.264c-4.037-45.668,6.384-57.031,14.971-59.034
								c2.284,0.434,3.79,1.207,3.79,1.207l0.165,16.656c-0.812,0.576-1.765,0.606-2.449,1.457
								c-1.475,1.838-1.173,5.573-1.139,7.756c0.105,6.771,1.501,13.317,1.731,20.04c0.239,6.969-0.986,14.316-3.727,20.75
								c-0.553,1.299-1.146,2.573-1.825,3.785c-1.483,2.645-3.403,5.774-5.747,7.505c-0.197,0.145-0.565,0.4-0.93,0.602
								c-0.721,0.4-1.426,0.589-0.752-0.713c3.136-6.063,3.458-13.885,3.695-20.649c-2.35,5.649-3.503,11.871-6.512,17.355
								c-1.902,3.465-4.626,7.101-7.831,9.491C257.918,259.755,257.184,244.264,257.184,244.264z"/>
							<path style="fill:#FF5D6C;" d="M272.345,188.532c0.04-0.133,0.087-0.252,0.129-0.382c4.637-14.391,20.732-9.183,20.732-9.183
								l-6.698,28.374l-1.138,4.819C276.189,211.611,267.854,203.409,272.345,188.532z"/>
						</g>
						<path style="fill:#FDB300;" d="M382.739,241.818c5.269-14.065,3.418-29.759,0.855-44.524
							c-5.351-30.825-38.054-41.967-64.062-35.863c-27.297,6.407-48.463,35.961-40.367,65.784c0.61,2.247,3.856,13.701,4.708,15.854
							c0,0,3.914-32.485,23.325-32.544s23.811-6.783,23.811-6.783s-0.94,9.455-8.274,11.909c-7.334,2.453,22.559-1.735,29.335-9.813
							c-0.9,1.073,0.3,5.202,0.688,6.236c1.819,4.845,6.148,6.584,10.708,7.201c-1.704-2.141-2.939-4.705-3.582-7.439
							c-0.948-4.028,0.858-5.28,4.014-2.684c9.249,7.608,19.706,20.925,15.396,34.403"/>
					</g>
				</g>
				
					<line style="fill:none;stroke:#FFFFFF;stroke-width:0.976;stroke-linecap:round;stroke-linejoin:round;stroke-miterlimit:10;" x1="383.48" y1="365.193" x2="383.48" y2="328.917"/>
				
					<line style="fill:none;stroke:#FFFFFF;stroke-width:0.976;stroke-linecap:round;stroke-linejoin:round;stroke-miterlimit:10;" x1="282.808" y1="361.126" x2="282.808" y2="329.893"/>
				<path style="fill:#FAC9A3;" d="M263.368,351.482c0,0-10.269,19.859-12.473,19.859c-14.958,3.86-29.916,7.72-44.873,11.581
					c-6.622,1.709-13.42,3.432-20.219,2.697c-6.055-0.654-11.831-3.24-17.919-3.412c-9.69-0.274-18.887,5.95-23.6,14.42
					c29.557-0.188,59.117-0.377,88.669,0.189c8.591,0.164,17.309,0.379,25.635-1.746c6.074-1.55,12.677-4.394,17.143-9.031
					c5.854-4.521,7.078-24.263,7.078-24.263L263.368,351.482z"/>
			</g>
			<g>
				<rect x="171.551" y="395.436" style="fill:#BAC9E6;" width="111.635" height="13.454"/>
				<rect x="171.551" y="398.617" style="fill:#8181C9;" width="111.635" height="10.274"/>
				<g>
					<path style="fill:#8181C9;" d="M245.776,408.893H99.191c-5.216,0-9.696-3.708-10.671-8.832l-14.042-73.81
						c-1.273-6.693,3.858-12.892,10.671-12.892h146.585c5.216,0,9.696,3.708,10.671,8.832l14.042,73.81
						C257.719,402.694,252.588,408.893,245.776,408.893z"/>
					<path style="fill:#A4A4E0;" d="M99.191,402.204c-2.001,0-3.726-1.427-4.099-3.393l-14.042-73.81
						c-0.319-1.678,0.417-2.876,0.885-3.441c0.467-0.564,1.507-1.512,3.215-1.512h146.585c2.001,0,3.726,1.427,4.099,3.393
						l14.042,73.81c0.319,1.678-0.417,2.876-0.884,3.441c-0.468,0.565-1.507,1.513-3.215,1.513H99.191z"/>
					<circle style="fill:#8181C9;" cx="165.462" cy="361.126" r="14.822"/>
				</g>
			</g>
			
				<line style="fill:none;stroke:#D3E2F5;stroke-width:2.4231;stroke-linecap:round;stroke-linejoin:round;stroke-miterlimit:10;" x1="283.186" y1="415.427" x2="361.472" y2="415.427"/>
			
				<line style="fill:none;stroke:#D3E2F5;stroke-width:2.4231;stroke-linecap:round;stroke-linejoin:round;stroke-miterlimit:10;" x1="41.005" y1="415.427" x2="254.24" y2="415.427"/>
		</g>
		<g>
			<path style="fill:#FFFFFF;" d="M221.733,187.295H83.519c-6.719,0-12.166,5.447-12.166,12.166v75.811
				c0,6.719,5.447,12.166,12.166,12.166h105.24l13.472,13.069c1.68,1.629,4.35,1.629,6.03,0l13.472-13.069
				c6.719,0,12.166-5.447,12.166-12.166v-75.811C233.899,192.742,228.452,187.295,221.733,187.295z"/>
			<g>
				<g>
					<g>
						<path style="fill:#0A2D4D;" d="M164.845,265.774c0.012-0.02-0.004-0.043-0.027-0.039c-0.469,0.096-3.776,0.589-6.804-3.813
							c-3.266-4.749,5.552-7.029-1.632-19.757c-4.048-7.171-0.504-15.435-0.04-23.095c0.797-13.17-10.521-21.884-22.313-24.509
							c-11.976-2.666-28.865-2.868-38.475,5.958c-0.964,0.886-1.839,1.867-2.609,2.927c-8.251,11.352,0.852,26.784-5.883,38.716
							c-7.187,12.73,1.633,15.01-1.633,19.76c-3.027,4.402-6.335,3.909-6.804,3.813c-0.023-0.005-0.038,0.019-0.026,0.039
							c0.361,0.611,3.971,6.45,9.186,5.104c0.026-0.007,0.045,0.023,0.026,0.042l-4.321,4.281c-0.011,0.011-0.013,0.028,0,0.038
							c0.504,0.401,9.943,7.722,17.091,0.024c0.015-0.016,0.043-0.009,0.046,0.014l0.48,3.471c0.002,0.012,0.01,0.022,0.023,0.023
							c0.351,0.031,5.298,0.318,7.738-8.109c0.027-0.093,0.057-0.191,0.089-0.295c3.895-12.416,21.636-12.416,25.531,0
							c0.033,0.104,0.062,0.202,0.089,0.295c2.441,8.427,7.387,8.14,7.738,8.109c0.013-0.001,0.021-0.01,0.023-0.023l0.48-3.471
							c0.003-0.022,0.03-0.03,0.046-0.014c7.147,7.698,16.587,0.376,17.091-0.024c0.013-0.01,0.011-0.027,0-0.038l-4.321-4.281
							c-0.019-0.019-0.001-0.049,0.026-0.042C160.875,272.224,164.484,266.385,164.845,265.774z"/>
						<path style="fill:#FDB300;" d="M87.877,282.584h70.242c-2.981-6.916-7.679-12.973-10.633-16.389
							c-1.733-2.004-4.009-3.446-6.556-4.175c-3.587-1.027-8.949-2.251-12.81-1.76l-0.377-3.875c0,0-7.325,0.709-11.516,0.454
							l-0.702,3.881c0,0-9.917,0.089-14.453,3.832v0l-0.001,0.001c-0.299,0.247-0.573,0.511-0.821,0.791
							c-2.234,2.208-8.549,8.853-12.771,17.271C87.606,282.597,87.737,282.584,87.877,282.584z"/>
						<g>
							<path style="fill:#FAC9A3;" d="M128.072,259.766l-0.329-3.381c0,0-7.325,0.709-11.516,0.454l-0.702,3.881
								c0,0-0.053,0-0.152,0.003C117.619,265.608,125.129,265.289,128.072,259.766z"/>
							<path style="fill:#FB9C81;" d="M115.609,256.681c0,0,6.166,1.956,12.134-0.296l0.332,3.413
								C128.075,259.798,121.327,262.216,115.609,256.681z"/>
						</g>
						<path style="fill:#FAC9A3;" d="M144.43,233.88c0.04-0.206,0.081-0.411,0.118-0.617c2.041-11.47,1.586-25.4-8.465-32.98
							c-8.455-6.377-22.332-6.269-30.709,0.388c-9.856,7.833-9.959,21.77-7.628,33.184c0.042,0.205,0.089,0.41,0.134,0.614
							c-1.791,0.495-3.036,2.205-2.878,4.124c0.112,1.353,0.909,2.51,2.12,3.116c1.021,0.511,2.149,0.507,3.263,0.546
							c1.295,2.939,2.968,5.691,5.08,8.092c8.44,9.598,23.579,9.419,31.784-0.402c2.05-2.453,3.653-5.247,4.873-8.218
							c1.113-0.066,2.24-0.091,3.248-0.628c1.195-0.637,1.963-1.814,2.041-3.169C147.521,236.007,146.233,234.329,144.43,233.88z"/>
						<g>
							<g>
								<g>
									<g>
										<path style="fill:#FFFFFF;" d="M114.925,236.818c0.341-0.138,0.569-0.465,0.587-0.833c0.089-1.822-0.101-7.152-5.301-7.58
											c-5.31-0.437-6.032,5.707-6.128,7.618c-0.018,0.36,0.165,0.696,0.479,0.872
											C105.811,237.597,109.399,239.056,114.925,236.818z"/>
										<g>
											<path style="fill:#0A2D4D;" d="M112.129,228.857c-1.043-0.317-2.143-0.352-3.166-0.185
												c-1.024,0.182-1.948,0.698-2.623,1.473c-0.693,0.762-1.156,1.731-1.505,2.734c-0.346,1.009-0.573,2.068-0.753,3.145
												c-0.062-1.093,0.054-2.197,0.322-3.274c0.262-1.076,0.737-2.132,1.5-2.994c0.759-0.859,1.86-1.443,2.997-1.527
												c0.282-0.048,0.563-0.031,0.844-0.011c0.28,0.015,0.559,0.023,0.831,0.083
												C111.117,228.419,111.652,228.584,112.129,228.857z"/>
										</g>
									</g>
									<g>
										<circle style="fill:#0A2D4D;" cx="111.239" cy="233.987" r="3.214"/>
										<circle style="fill:#FFFFFF;" cx="109.578" cy="232.551" r="0.878"/>
										<circle style="fill:#FFFFFF;" cx="110.17" cy="233.858" r="0.391"/>
									</g>
								</g>
								<g>
									<g>
										<path style="fill:#FFFFFF;" d="M127.45,236.66c-0.344-0.129-0.58-0.451-0.607-0.818c-0.135-1.819-0.08-7.152,5.108-7.712
											c5.297-0.571,6.174,5.553,6.319,7.461c0.027,0.359-0.147,0.7-0.457,0.884C136.581,237.208,133.03,238.758,127.45,236.66z"
											/>
										<g>
											<path style="fill:#0A2D4D;" d="M130.044,228.631c0.469-0.285,1-0.463,1.539-0.595c0.27-0.067,0.549-0.082,0.828-0.104
												c0.28-0.027,0.561-0.051,0.844-0.011c1.138,0.055,2.254,0.611,3.034,1.451c0.784,0.842,1.286,1.886,1.575,2.955
												c0.295,1.07,0.44,2.17,0.405,3.265c-0.207-1.072-0.461-2.125-0.832-3.125c-0.375-0.994-0.862-1.951-1.574-2.695
												c-0.695-0.758-1.632-1.25-2.66-1.406C132.177,228.225,131.079,228.287,130.044,228.631z"/>
										</g>
									</g>
									<g>
										<circle style="fill:#0A2D4D;" cx="131.203" cy="233.735" r="3.214"/>
										<circle style="fill:#FFFFFF;" cx="129.543" cy="232.298" r="0.878"/>
										<circle style="fill:#FFFFFF;" cx="130.135" cy="233.606" r="0.391"/>
									</g>
								</g>
							</g>
							<g>
								<path style="fill:#FB9C81;" d="M118.523,239.28c0.237-0.47,0.618-0.858,1.062-1.165c0.443-0.312,0.989-0.495,1.547-0.525
									c0.554-0.011,1.125,0.089,1.59,0.374c0.246,0.115,0.445,0.302,0.661,0.449c0.187,0.19,0.369,0.378,0.53,0.582
									c-0.474-0.228-0.906-0.476-1.37-0.618c-0.455-0.164-0.923-0.22-1.381-0.203C120.233,238.204,119.354,238.666,118.523,239.28
									z"/>
							</g>
							<g>
								<g>
									<path style="fill:#0A2D4D;" d="M127.722,226.276c0.579-0.752,1.382-1.236,2.228-1.555c0.849-0.333,1.768-0.463,2.683-0.445
										c0.911,0.053,1.828,0.213,2.651,0.615c0.833,0.357,1.575,0.922,2.14,1.652l-0.054,0.104
										c-0.751-0.352-1.516-0.679-2.323-0.868c-0.798-0.22-1.625-0.312-2.448-0.334c-1.643-0.07-3.327,0.232-4.82,0.934
										L127.722,226.276z"/>
								</g>
								<g>
									<path style="fill:#0A2D4D;" d="M114.336,226.548c-1.511-0.664-3.201-0.923-4.842-0.812
										c-0.822,0.043-1.647,0.156-2.439,0.396c-0.802,0.21-1.559,0.556-2.3,0.927l-0.057-0.102
										c0.546-0.744,1.273-1.327,2.097-1.705c0.813-0.422,1.725-0.605,2.635-0.681c0.914-0.042,1.836,0.065,2.693,0.377
										c0.854,0.297,1.669,0.76,2.266,1.498L114.336,226.548z"/>
								</g>
							</g>
							<g>
								
									<ellipse transform="matrix(0.9999 -0.0126 0.0126 0.9999 -3.038 1.3527)" style="opacity:0.6;fill:#FB9C81;" cx="105.451" cy="240.917" rx="3.684" ry="2.056"/>
								
									<ellipse transform="matrix(0.9999 -0.0126 0.0126 0.9999 -3.0304 1.7519)" style="opacity:0.6;fill:#FB9C81;" cx="137.024" cy="240.518" rx="3.684" ry="2.056"/>
							</g>
							<g>
								<path style="fill:#0A2D4D;" d="M127.765,244.039c0,2.616-2.931,4.737-6.547,4.737c-3.616,0-6.547-2.121-6.547-4.737H127.765
									z"/>
								<path style="fill:#FFFFFF;" d="M123.45,245.577h-4.465c-0.923,0-1.769-0.421-2.192-1.091l-0.283-0.447h9.414l-0.283,0.447
									C125.219,245.156,124.373,245.577,123.45,245.577z"/>
								<g>
									<defs>
										<path id="SVGID_00000104700121462958161010000012430199259960523676_" d="M127.765,244.039
											c0,2.616-2.931,4.737-6.547,4.737c-3.616,0-6.547-2.121-6.547-4.737H127.765z"/>
									</defs>
									<clipPath id="SVGID_00000002352903801966540260000002868803282327508096_">
										<use xlink:href="#SVGID_00000104700121462958161010000012430199259960523676_"  style="overflow:visible;"/>
									</clipPath>
									
										<ellipse style="clip-path:url(#SVGID_00000002352903801966540260000002868803282327508096_);fill:#FE7D7E;" cx="121.218" cy="248.017" rx="3.767" ry="1.154"/>
								</g>
							</g>
						</g>
						<path style="fill:#0A2D4D;" d="M108.259,197.589c0,0-0.227,21.348,17.507,25.233c17.734,3.886,19.017,11.33,19.017,11.33
							s7.584-13.402,3.179-25.493C143.557,196.567,119.296,190.431,108.259,197.589z"/>
						<path style="fill:#0A2D4D;" d="M112.442,212.641c0,0-6.637,16.26-14.563,21.828c0,0-7.755-13.299-0.134-27.494
							C105.368,192.78,119.584,194.154,112.442,212.641z"/>
					</g>
					<g>
						<path style="fill:#FAC9A3;" d="M156.958,265.441c0,0,0.259-4.14,0-7.763c-0.259-3.623,1.941-4.787,2.847-6.146
							c0.906-1.359,2.631-1.876,2.933-0.539c0,0,4.356-8.712,5.995-9.402c1.639-0.69,0.906,1.855,0.259,3.321
							c-0.647,1.466-1.898,3.795-1.898,3.795s3.019,1.307,3.278,4.751s-0.259,7.153-1.251,8.878
							c-0.992,1.725-4.828,4.572-5.433,5.607L156.958,265.441z"/>
						<g>
							<g>
								<g>
									<path style="fill:#FB9C81;" d="M167.093,248.707c-1.045,1.16-2.12,2.309-3.003,3.566c-0.886,1.211-1.076,2.864-0.634,4.266
										c0.215,0.674,0.67,1.359,1.047,2.021c0.201,0.329,0.407,0.659,0.632,0.958c0.056,0.076,0.113,0.143,0.171,0.21l0.077,0.073
										c0.005,0.001,0.008,0.005,0.011,0.011c-0.017-0.024-0.12-0.002-0.142,0.026c-0.095,0.12-0.017,0.015-0.012-0.033
										l0.065-0.149c0.045-0.096,0.095-0.186,0.146-0.275c0.423-0.698,0.969-1.279,1.546-1.817
										c0.595-0.506,1.191-1.056,1.93-1.341c-0.679,0.387-1.221,0.96-1.752,1.522c-0.529,0.561-1.028,1.164-1.376,1.828
										c-0.041,0.083-0.082,0.166-0.114,0.25l-0.045,0.123c-0.031,0.043,0.033,0.038-0.124,0.235
										c-0.049,0.061-0.218,0.068-0.276,0.04c-0.039-0.019-0.078-0.041-0.114-0.065c-0.059-0.044-0.094-0.082-0.14-0.124
										c-0.073-0.079-0.143-0.16-0.205-0.24c-0.252-0.321-0.466-0.651-0.679-0.984c-0.403-0.685-0.855-1.301-1.139-2.113
										c-0.451-1.568-0.23-3.371,0.806-4.654C164.752,250.79,165.897,249.719,167.093,248.707z"/>
								</g>
								<g>
									<path style="fill:#FB9C81;" d="M162.737,250.993c0.233,0.617,0.1,1.295-0.023,1.915c-0.135,0.632-0.359,1.232-0.613,1.822
										c-0.268,0.583-0.578,1.149-0.956,1.668c-0.377,0.517-0.79,1.014-1.298,1.409c0.687-1.071,1.276-2.157,1.782-3.288
										c0.256-0.562,0.487-1.142,0.704-1.721c0.111-0.29,0.202-0.586,0.276-0.885
										C162.693,251.615,162.759,251.309,162.737,250.993z"/>
								</g>
								<g>
									<path style="fill:#FB9C81;" d="M163.931,258.095c-0.122-0.587,0.104-1.171,0.302-1.712
										c0.217-0.546,0.522-1.054,0.866-1.526c0.352-0.463,0.728-0.907,1.155-1.3c0.423-0.395,0.871-0.768,1.378-1.055
										c-0.734,0.894-1.452,1.756-2.118,2.663c-0.339,0.444-0.636,0.913-0.925,1.392c-0.145,0.24-0.272,0.489-0.387,0.744
										C164.083,257.554,163.952,257.814,163.931,258.095z"/>
								</g>
							</g>
						</g>
					</g>
					<path style="fill:#FDB300;" d="M149.964,282.615c0,0,2.559-12.988,4.715-19.199c0,0,9.699,1.412,12.258,5.364
						c0,0-0.269,11.011-0.808,13.835H149.964z"/>
				</g>
				<g>
					<circle style="fill:#8181C9;" cx="219.71" cy="200.18" r="2.523"/>
					<circle style="fill:#8181C9;" cx="211.57" cy="200.18" r="2.523"/>
					<circle style="fill:#8181C9;" cx="203.43" cy="200.18" r="2.523"/>
				</g>
				<g>
					
						<text transform="matrix(1 0 0 1 161.9185 219.1685)" style="fill:#A4A4E0; font-family:'Quicksand-Bold'; font-size:12.8061px;">LESSON 1</text>
				</g>
				<g>
					<g>
						<text transform="matrix(1 0 0 1 175.4595 238.2827)"><tspan x="0" y="0" style="fill:#A4A4E0; font-family:'Quicksand-Bold'; font-size:12.8061px;">A</tspan><tspan x="0" y="15.368" style="fill:#A4A4E0; font-family:'Quicksand-Bold'; font-size:12.8061px;">B</tspan><tspan x="0" y="30.735" style="fill:#A4A4E0; font-family:'Quicksand-Bold'; font-size:12.8061px;">C</tspan></text>
					</g>
					<g>
						<g>
							<rect x="187.976" y="230.521" style="fill:#A4A4E0;" width="36.422" height="2.908"/>
							<rect x="187.976" y="235.495" style="fill:#A4A4E0;" width="26.815" height="2.908"/>
						</g>
						<g>
							<rect x="187.976" y="244.835" style="fill:#A4A4E0;" width="36.422" height="2.908"/>
							<rect x="187.976" y="249.809" style="fill:#A4A4E0;" width="26.815" height="2.908"/>
						</g>
						<g>
							<rect x="187.976" y="259.149" style="fill:#A4A4E0;" width="36.422" height="2.908"/>
							<rect x="187.976" y="264.123" style="fill:#A4A4E0;" width="26.815" height="2.908"/>
						</g>
					</g>
				</g>
			</g>
		</g>
		<g>
			<g>
				<path style="fill:#FFFFFF;" d="M286.097,153.976c0-5.984-4.851-10.835-10.835-10.835h-22.277
					c-5.984,0-10.835,4.851-10.835,10.835c0,5.984,4.851,10.835,10.835,10.835h12.964l4.307,4.601c1.127,1.204,3.038,1.204,4.165,0
					l5.143-5.493C283.407,162.254,286.097,158.431,286.097,153.976z"/>
				<g>
					<circle style="fill:#D3E2F5;" cx="274.004" cy="153.976" r="3.062"/>
					<circle style="fill:#D3E2F5;" cx="264.124" cy="153.976" r="3.062"/>
					<circle style="fill:#D3E2F5;" cx="254.244" cy="153.976" r="3.062"/>
				</g>
			</g>
			<g>
				<g>
					<path style="fill:#FFFFFF;" d="M415.19,129.978h-24.62c-6.428,0-11.639,5.211-11.639,11.639v7.689
						c0,6.428,5.211,11.639,11.639,11.639h12.199l5.345,4.321c1.442,1.166,3.502,1.166,4.944,0l6.323-5.112
						c4.354-1.684,7.447-5.9,7.447-10.848v-7.689C426.828,135.189,421.618,129.978,415.19,129.978z"/>
					<g>
						
							<rect x="387.397" y="137.772" style="fill:none;stroke:#D3E2F5;stroke-width:1.2639;stroke-linecap:round;stroke-linejoin:round;stroke-miterlimit:10;" width="30.966" height="16.642"/>
						
							<polyline style="fill:none;stroke:#D3E2F5;stroke-width:1.2639;stroke-linecap:round;stroke-linejoin:round;stroke-miterlimit:10;" points="
							387.397,137.772 402.88,146.093 418.363,137.772 						"/>
					</g>
				</g>
				<circle style="fill:#FF5D6C;" cx="382.962" cy="132.82" r="5.554"/>
			</g>
			<g>
				<g>
					<path style="fill:#FFFFFF;" d="M337.438,130.957c1.786-2.614,2.833-5.772,2.833-9.177c0-8.998-7.294-16.292-16.292-16.292
						c-8.998,0-16.292,7.294-16.292,16.292s7.294,16.292,16.292,16.292c1.821,0,3.565-0.312,5.2-0.862l8.56,2.884L337.438,130.957z"
						/>
					
						<text transform="matrix(1 0 0 1 317.8486 129.2642)" style="fill:#D3E2F5; font-family:'Quicksand-Bold'; font-size:20.7838px;">2</text>
				</g>
				<circle style="fill:#FF5D6C;" cx="311.214" cy="111.043" r="5.554"/>
			</g>
		</g>
		<g>
			<g>
				<path style="fill:#FF5D6C;" d="M87.962,369.877c9.669,0,17.602,1.612,18.435,3.667c0.048-0.118,0.077-0.237,0.077-0.358
					c0-2.223-8.288-4.024-18.512-4.024c-10.224,0-18.512,1.802-18.512,4.024c0,0.121,0.029,0.24,0.077,0.358
					C70.36,371.489,78.293,369.877,87.962,369.877z"/>
				<path style="fill:#FE7D7E;" d="M87.962,377.211c9.669,0,17.602-1.612,18.435-3.667c-0.833-2.055-8.766-3.667-18.435-3.667
					s-17.602,1.612-18.435,3.667C70.36,375.599,78.293,377.211,87.962,377.211z"/>
				<g>
					<path style="fill:#0A2D4D;" d="M88.762,357.138L88.762,357.138c-0.148-0.007-0.262-0.132-0.256-0.28l0.098-2.225
						c0.007-0.148,0.132-0.262,0.28-0.256l0,0c0.148,0.007,0.262,0.132,0.256,0.28l-0.098,2.225
						C89.035,357.03,88.91,357.144,88.762,357.138z"/>
					<path style="fill:#FFFFFF;" d="M90.579,360.446c-0.402-2.893-1.009-4.656-1.757-4.689c-0.746-0.033-1.505,1.665-2.161,4.503
						C87.786,360.468,89.091,360.562,90.579,360.446z"/>
					<path style="fill:#FDB300;" d="M90.544,381.79c0.199-2.009,0.355-4.169,0.455-6.423c0.264-5.966,0.081-11.32-0.42-14.922
						c-1.488,0.116-2.794,0.022-3.917-0.186c-0.818,3.543-1.474,8.867-1.738,14.839c-0.099,2.241-0.134,4.393-0.114,6.402
						C86.321,381.892,88.234,382.092,90.544,381.79z"/>
				</g>
				<g>
					<path style="fill:#8181C9;" d="M71.353,361.277l10.484,30.776c0.463,1.36,1.942,2.087,3.302,1.624l1.56-0.532
						c1.36-0.463,2.087-1.942,1.624-3.302l-10.484-30.776C75.826,363.372,71.353,361.277,71.353,361.277z"/>
					<path style="fill:#8181C9;" d="M74.125,355.01l-2.05-2.239l-0.251,2.963C72.47,355.858,73.299,355.771,74.125,355.01z"/>
					<path style="fill:#FAC9A3;" d="M74.125,355.01c-0.826,0.761-1.655,0.848-2.301,0.725l-0.47,5.542c0,0,4.472,2.096,6.486-2.209
						L74.125,355.01z"/>
				</g>
				<g>
					<path style="fill:#0A2D4D;" d="M99.762,359.119l-8.705,31.326c-0.385,1.384,0.426,2.819,1.81,3.203l1.588,0.441
						c1.384,0.385,2.819-0.426,3.203-1.81l8.705-31.325C102.273,363.373,99.762,359.119,99.762,359.119z"/>
					<path style="fill:#0A2D4D;" d="M105.586,355.509l-0.429-3.005l-1.879,2.305C103.741,355.275,104.475,355.671,105.586,355.509z"
						/>
					<path style="fill:#FAC9A3;" d="M105.586,355.509c-1.111,0.162-1.845-0.234-2.309-0.7l-3.515,4.31c0,0,2.51,4.253,6.602,1.835
						L105.586,355.509z"/>
				</g>
				<path style="fill:#FF5D6C;" d="M87.962,377.211c-9.892,0-17.971-1.687-18.485-3.81l4.124,33.074
					c0.183,1.469,1.432,2.572,2.913,2.572h11.448H99.41c1.481,0,2.729-1.103,2.913-2.572l4.124-33.074
					C105.933,375.524,97.854,377.211,87.962,377.211z"/>
				<path style="fill:#FF5D6C;" d="M87.962,377.211c9.892,0,17.971-1.687,18.485-3.81l0.027-0.215h-0.299
					c-1.553,1.881-9.113,3.309-18.213,3.309s-16.66-1.428-18.213-3.309H69.45l0.027,0.215
					C69.99,375.524,78.07,377.211,87.962,377.211z"/>
			</g>
			<g>
				<g>
					
						<line style="fill:none;stroke:#FFFFFF;stroke-width:0.976;stroke-linecap:round;stroke-linejoin:round;stroke-miterlimit:10;" x1="77.389" y1="398.617" x2="77.839" y2="403.754"/>
					
						<line style="fill:none;stroke:#FFFFFF;stroke-width:0.976;stroke-linecap:round;stroke-linejoin:round;stroke-miterlimit:10;" x1="75.655" y1="378.862" x2="77.043" y2="394.68"/>
				</g>
			</g>
		</g>
		<g>
			<g>
				
					<line style="fill:none;stroke:#FFFFFF;stroke-width:5.1595;stroke-linecap:round;stroke-linejoin:round;stroke-miterlimit:10;" x1="63.394" y1="293.298" x2="63.394" y2="310.158"/>
				
					<line style="fill:none;stroke:#FFFFFF;stroke-width:5.1595;stroke-linecap:round;stroke-linejoin:round;stroke-miterlimit:10;" x1="71.824" y1="301.728" x2="54.964" y2="301.728"/>
			</g>
			<g>
				
					<line style="fill:none;stroke:#FFFFFF;stroke-width:5.1595;stroke-linecap:round;stroke-linejoin:round;stroke-miterlimit:10;" x1="41.086" y1="276.079" x2="41.086" y2="289.152"/>
				
					<line style="fill:none;stroke:#FFFFFF;stroke-width:5.1595;stroke-linecap:round;stroke-linejoin:round;stroke-miterlimit:10;" x1="47.623" y1="282.615" x2="34.549" y2="282.615"/>
			</g>
			<g>
				
					<line style="fill:none;stroke:#FFFFFF;stroke-width:5.1595;stroke-linecap:round;stroke-linejoin:round;stroke-miterlimit:10;" x1="447.208" y1="200.36" x2="447.208" y2="217.219"/>
				
					<line style="fill:none;stroke:#FFFFFF;stroke-width:5.1595;stroke-linecap:round;stroke-linejoin:round;stroke-miterlimit:10;" x1="455.638" y1="208.789" x2="438.778" y2="208.789"/>
			</g>
			<g>
				
					<line style="fill:none;stroke:#FFFFFF;stroke-width:5.1595;stroke-linecap:round;stroke-linejoin:round;stroke-miterlimit:10;" x1="424.9" y1="183.14" x2="424.9" y2="196.213"/>
				
					<line style="fill:none;stroke:#FFFFFF;stroke-width:5.1595;stroke-linecap:round;stroke-linejoin:round;stroke-miterlimit:10;" x1="431.437" y1="189.676" x2="418.363" y2="189.676"/>
			</g>
			<g>
				
					<line style="fill:none;stroke:#FFFFFF;stroke-width:5.1595;stroke-linecap:round;stroke-linejoin:round;stroke-miterlimit:10;" x1="422.088" y1="295.192" x2="422.088" y2="308.265"/>
				
					<line style="fill:none;stroke:#FFFFFF;stroke-width:5.1595;stroke-linecap:round;stroke-linejoin:round;stroke-miterlimit:10;" x1="428.624" y1="301.728" x2="415.551" y2="301.728"/>
			</g>
		</g>
		<g>
			<g>
				<circle style="fill:#FFFFFF;" cx="114.671" cy="132.115" r="32.659"/>
				<g>
					<g>
						<path style="fill:#FF5D6C;" d="M97.095,154.263h35.351c-1.5-3.481-3.865-6.529-5.351-8.248
							c-0.872-1.009-2.017-1.734-3.299-2.101c-1.805-0.517-4.504-1.133-6.447-0.886l-0.19-1.95c0,0-3.686,0.357-5.796,0.228
							l-0.353,1.953c0,0-4.991,0.045-7.274,1.929v0l0,0c-0.151,0.124-0.289,0.257-0.413,0.398c-1.124,1.111-4.302,4.455-6.427,8.692
							C96.959,154.27,97.025,154.263,97.095,154.263z"/>
						<g>
							<path style="fill:#FAC9A3;" d="M117.324,142.78l-0.166-1.701c0,0-3.686,0.357-5.796,0.228l-0.353,1.953
								c0,0-0.027,0-0.076,0.001C112.064,145.72,115.844,145.56,117.324,142.78z"/>
							<path style="fill:#FB9C81;" d="M111.052,141.227c0,0,3.103,0.984,6.107-0.149l0.167,1.718
								C117.326,142.796,113.93,144.013,111.052,141.227z"/>
						</g>
						<path style="fill:#FAC9A3;" d="M125.557,129.752c0.02-0.104,0.041-0.207,0.059-0.311c1.027-5.772,0.798-12.783-4.26-16.598
							c-4.255-3.21-11.239-3.155-15.455,0.195c-4.96,3.942-5.012,10.956-3.839,16.7c0.021,0.103,0.045,0.206,0.067,0.309
							c-0.901,0.249-1.528,1.109-1.448,2.076c0.056,0.681,0.458,1.263,1.067,1.568c0.514,0.257,1.081,0.255,1.642,0.275
							c0.652,1.479,1.494,2.864,2.556,4.072c4.248,4.83,11.866,4.74,15.996-0.202c1.032-1.235,1.838-2.64,2.453-4.136
							c0.56-0.033,1.128-0.046,1.635-0.316c0.602-0.32,0.988-0.913,1.027-1.595C127.113,130.823,126.464,129.978,125.557,129.752z"
							/>
						<g>
							<g>
								<g>
									<g>
										<path style="fill:#FFFFFF;" d="M110.708,131.231c0.172-0.069,0.286-0.234,0.295-0.419
											c0.045-0.917-0.051-3.599-2.668-3.815c-2.672-0.22-3.036,2.872-3.084,3.834c-0.009,0.181,0.083,0.35,0.241,0.439
											C106.121,131.623,107.927,132.357,110.708,131.231z"/>
										<g>
											<path style="fill:#0A2D4D;" d="M109.301,127.224c-0.523-0.166-1.08-0.173-1.593-0.093
												c-0.515,0.089-0.986,0.344-1.32,0.741c-0.355,0.379-0.585,0.87-0.757,1.376c-0.17,0.508-0.295,1.04-0.379,1.583
												c-0.044-1.086,0.166-2.261,0.917-3.154c0.387-0.426,0.936-0.723,1.508-0.769
												C108.243,126.861,108.814,126.957,109.301,127.224z"/>
										</g>
									</g>
									<g>
										<circle style="fill:#0A2D4D;" cx="108.853" cy="129.806" r="1.618"/>
										<circle style="fill:#FFFFFF;" cx="108.017" cy="129.083" r="0.442"/>
										<circle style="fill:#FFFFFF;" cx="108.315" cy="129.741" r="0.197"/>
									</g>
								</g>
								<g>
									<g>
										<path style="fill:#FFFFFF;" d="M117.011,131.151c-0.173-0.065-0.292-0.227-0.306-0.411c-0.068-0.915-0.04-3.6,2.571-3.881
											c2.666-0.287,3.107,2.795,3.18,3.755c0.014,0.181-0.074,0.352-0.23,0.445C121.607,131.427,119.82,132.207,117.011,131.151
											z"/>
										<g>
											<path style="fill:#0A2D4D;" d="M118.317,127.11c0.48-0.279,1.048-0.39,1.616-0.357c0.573,0.031,1.129,0.315,1.527,0.73
												c0.774,0.874,1.014,2.043,0.997,3.13c-0.097-0.541-0.236-1.069-0.419-1.573c-0.185-0.501-0.427-0.987-0.792-1.356
												c-0.344-0.388-0.821-0.632-1.339-0.708C119.392,126.91,118.836,126.931,118.317,127.11z"/>
										</g>
									</g>
									<g>
										<circle style="fill:#0A2D4D;" cx="118.9" cy="129.679" r="1.618"/>
										<circle style="fill:#FFFFFF;" cx="118.065" cy="128.956" r="0.442"/>
										<circle style="fill:#FFFFFF;" cx="118.363" cy="129.614" r="0.197"/>
									</g>
								</g>
							</g>
							<g>
								<path style="fill:#FB9C81;" d="M112.519,132.47c0.241-0.468,0.748-0.812,1.313-0.851c0.278,0.003,0.565,0.048,0.8,0.188
									c0.244,0.124,0.436,0.316,0.599,0.518c-0.463-0.241-0.916-0.453-1.384-0.413c-0.234-0.002-0.462,0.07-0.684,0.167
									C112.944,132.183,112.724,132.309,112.519,132.47z"/>
							</g>
							<g>
								<g>
									<path style="fill:#0A2D4D;" d="M117.149,125.925c0.14-0.199,0.328-0.324,0.511-0.473c0.195-0.114,0.4-0.214,0.612-0.304
										c0.425-0.178,0.889-0.236,1.349-0.229c0.458,0.029,0.921,0.102,1.333,0.315c0.208,0.095,0.402,0.219,0.591,0.339
										c0.175,0.153,0.346,0.3,0.487,0.486l-0.027,0.052c-0.747-0.371-1.57-0.594-2.401-0.605
										c-0.827-0.035-1.674,0.117-2.426,0.47L117.149,125.925z"/>
								</g>
								<g>
									<path style="fill:#0A2D4D;" d="M110.412,126.062c-0.76-0.334-1.611-0.465-2.437-0.409c-0.83,0.032-1.648,0.276-2.385,0.666
										l-0.029-0.051c0.136-0.189,0.304-0.341,0.475-0.498c0.186-0.125,0.376-0.254,0.582-0.354
										c0.406-0.224,0.867-0.308,1.324-0.349c0.459-0.019,0.925,0.027,1.354,0.195c0.214,0.085,0.421,0.179,0.619,0.289
										c0.186,0.144,0.377,0.264,0.522,0.459L110.412,126.062z"/>
								</g>
							</g>
							<g>
								
									<ellipse transform="matrix(0.9999 -0.0126 0.0126 0.9999 -1.677 1.3503)" style="opacity:0.6;fill:#FB9C81;" cx="105.94" cy="133.294" rx="1.854" ry="1.035"/>
								
									<ellipse transform="matrix(0.9999 -0.0126 0.0126 0.9999 -1.6732 1.5512)" style="opacity:0.6;fill:#FB9C81;" cx="121.83" cy="133.093" rx="1.854" ry="1.035"/>
							</g>
							<g>
								<path style="fill:#0A2D4D;" d="M117.17,134.865c0,1.317-1.475,2.384-3.295,2.384s-3.295-1.067-3.295-2.384H117.17z"/>
								<path style="fill:#FFFFFF;" d="M114.998,135.639h-2.247c-0.464,0-0.89-0.212-1.103-0.549l-0.142-0.225h4.738l-0.142,0.225
									C115.889,135.427,115.463,135.639,114.998,135.639z"/>
								<g>
									<defs>
										<path id="SVGID_00000177466016755873955770000010716236313716789946_" d="M117.17,134.865
											c0,1.317-1.475,2.384-3.295,2.384s-3.295-1.067-3.295-2.384H117.17z"/>
									</defs>
									<clipPath id="SVGID_00000087386901401156420210000004751717364425849008_">
										<use xlink:href="#SVGID_00000177466016755873955770000010716236313716789946_"  style="overflow:visible;"/>
									</clipPath>
									
										<ellipse style="clip-path:url(#SVGID_00000087386901401156420210000004751717364425849008_);fill:#FE7D7E;" cx="113.875" cy="136.867" rx="1.896" ry="0.581"/>
								</g>
							</g>
						</g>
						<path style="fill:#0A2D4D;" d="M107.354,111.488c0,0-0.114,10.744,8.811,12.699c8.925,1.955,9.57,5.702,9.57,5.702
							s3.817-6.745,1.6-12.83S112.908,107.886,107.354,111.488z"/>
						<path style="fill:#0A2D4D;" d="M109.459,119.063c0,0-3.34,8.183-7.329,10.985c0,0-3.903-6.693-0.067-13.837
							C105.898,109.068,113.053,109.759,109.459,119.063z"/>
					</g>
				</g>
				<circle style="fill:#FDB300;" cx="136.375" cy="155.041" r="5.814"/>
			</g>
			<g>
				<circle style="fill:#FFFFFF;" cx="190.581" cy="132.115" r="32.659"/>
				<g>
					<g>
						<path style="fill:#FF5D6C;" d="M208.472,133.531c0.957-15.194-2.598-18.879-5.466-19.472
							c-0.755,0.163-1.248,0.433-1.248,0.433l0.085,5.531c0.274,0.184,0.591,0.186,0.825,0.463c0.505,0.598,0.436,1.84,0.443,2.565
							c0.022,2.249-0.386,4.433-0.406,6.667c-0.021,2.316,0.448,4.744,1.411,6.857c0.195,0.426,0.402,0.845,0.638,1.241
							c0.514,0.866,1.178,1.888,1.971,2.443c0.067,0.047,0.191,0.128,0.314,0.192c0.243,0.127,0.478,0.183,0.244-0.243
							c-1.092-1.986-1.265-4.58-1.4-6.824c0.828,1.856,1.263,3.912,2.308,5.707c0.66,1.134,1.595,2.319,2.679,3.085
							C208.358,138.68,208.472,133.531,208.472,133.531z"/>
						<path style="fill:#8181C9;" d="M202.971,115.157c-0.014-0.044-0.031-0.083-0.046-0.126c-1.66-4.738-6.959-2.874-6.959-2.874
							l2.462,9.363l0.418,1.59C201.889,122.851,204.587,120.058,202.971,115.157z"/>
					</g>
					<g>
						<path style="fill:#8181C9;" d="M170.493,154.263h35.351c-1.5-3.481-3.865-6.529-5.351-8.248
							c-0.872-1.009-2.017-1.734-3.299-2.101c-1.805-0.517-4.504-1.133-6.447-0.886l-0.19-1.95c0,0-3.686,0.357-5.796,0.228
							l-0.353,1.953c0,0-4.991,0.045-7.274,1.929v0l0,0c-0.151,0.124-0.289,0.257-0.413,0.398c-1.124,1.111-4.302,4.455-6.427,8.692
							C170.357,154.27,170.423,154.263,170.493,154.263z"/>
						<g>
							<path style="fill:#FAC9A3;" d="M190.722,142.78l-0.165-1.701c0,0-3.686,0.357-5.796,0.228l-0.353,1.953
								c0,0-0.027,0-0.076,0.001C185.462,145.72,189.242,145.56,190.722,142.78z"/>
							<path style="fill:#FB9C81;" d="M184.45,141.227c0,0,3.103,0.984,6.107-0.149l0.167,1.718
								C190.724,142.796,187.328,144.013,184.45,141.227z"/>
						</g>
						<path style="fill:#FAC9A3;" d="M198.955,129.752c0.02-0.104,0.041-0.207,0.059-0.311c1.027-5.772,0.798-12.783-4.26-16.598
							c-4.255-3.21-11.239-3.155-15.455,0.195c-4.96,3.942-5.012,10.956-3.839,16.7c0.021,0.103,0.045,0.206,0.067,0.309
							c-0.901,0.249-1.528,1.109-1.448,2.076c0.056,0.681,0.458,1.263,1.067,1.568c0.514,0.257,1.081,0.255,1.642,0.275
							c0.652,1.479,1.494,2.864,2.556,4.072c4.248,4.83,11.866,4.74,15.996-0.202c1.032-1.235,1.838-2.64,2.453-4.136
							c0.56-0.033,1.128-0.046,1.635-0.316c0.602-0.32,0.988-0.913,1.027-1.595C200.511,130.823,199.862,129.978,198.955,129.752z"
							/>
						<g>
							<g>
								<g>
									<g>
										<path style="fill:#FFFFFF;" d="M184.106,131.231c0.172-0.069,0.286-0.234,0.295-0.419
											c0.045-0.917-0.051-3.599-2.668-3.815c-2.672-0.22-3.036,2.872-3.084,3.834c-0.009,0.181,0.083,0.35,0.241,0.439
											C179.519,131.623,181.325,132.357,184.106,131.231z"/>
										<g>
											<path style="fill:#0A2D4D;" d="M182.699,127.224c-0.523-0.166-1.08-0.173-1.593-0.093
												c-0.515,0.089-0.986,0.344-1.32,0.741c-0.356,0.379-0.585,0.87-0.757,1.376c-0.17,0.508-0.295,1.04-0.379,1.583
												c-0.044-1.086,0.166-2.261,0.917-3.154c0.387-0.426,0.936-0.723,1.508-0.769
												C181.641,126.861,182.212,126.957,182.699,127.224z"/>
										</g>
									</g>
									<g>
										<circle style="fill:#0A2D4D;" cx="182.251" cy="129.806" r="1.618"/>
										<circle style="fill:#FFFFFF;" cx="181.415" cy="129.083" r="0.442"/>
										<circle style="fill:#FFFFFF;" cx="181.713" cy="129.741" r="0.197"/>
									</g>
								</g>
								<g>
									<g>
										<path style="fill:#FFFFFF;" d="M190.409,131.151c-0.173-0.065-0.292-0.227-0.306-0.411c-0.068-0.915-0.04-3.6,2.571-3.881
											c2.666-0.287,3.107,2.795,3.18,3.755c0.014,0.181-0.074,0.352-0.23,0.445
											C195.005,131.427,193.218,132.207,190.409,131.151z"/>
										<g>
											<path style="fill:#0A2D4D;" d="M191.715,127.11c0.48-0.279,1.048-0.39,1.616-0.357c0.573,0.031,1.129,0.315,1.527,0.73
												c0.774,0.874,1.014,2.043,0.997,3.13c-0.097-0.541-0.236-1.069-0.419-1.573c-0.185-0.501-0.427-0.987-0.792-1.356
												c-0.344-0.388-0.821-0.632-1.339-0.708C192.79,126.91,192.234,126.931,191.715,127.11z"/>
										</g>
									</g>
									<g>
										<circle style="fill:#0A2D4D;" cx="192.298" cy="129.679" r="1.618"/>
										<circle style="fill:#FFFFFF;" cx="191.463" cy="128.956" r="0.442"/>
										<circle style="fill:#FFFFFF;" cx="191.761" cy="129.614" r="0.197"/>
									</g>
								</g>
							</g>
							<g>
								<path style="fill:#FB9C81;" d="M185.917,132.47c0.241-0.468,0.748-0.812,1.313-0.851c0.278,0.003,0.565,0.048,0.8,0.188
									c0.244,0.124,0.436,0.316,0.599,0.518c-0.463-0.241-0.916-0.453-1.384-0.413c-0.234-0.002-0.462,0.07-0.684,0.167
									C186.342,132.183,186.122,132.309,185.917,132.47z"/>
							</g>
							<g>
								<g>
									<path style="fill:#FF5D6C;" d="M190.546,125.925c0.14-0.199,0.328-0.324,0.511-0.473c0.195-0.114,0.4-0.214,0.612-0.304
										c0.425-0.178,0.889-0.236,1.349-0.229c0.458,0.029,0.921,0.102,1.333,0.315c0.208,0.095,0.402,0.219,0.591,0.339
										c0.175,0.153,0.346,0.3,0.487,0.486l-0.027,0.052c-0.747-0.371-1.57-0.594-2.401-0.605
										c-0.827-0.035-1.674,0.117-2.426,0.47L190.546,125.925z"/>
								</g>
								<g>
									<path style="fill:#FF5D6C;" d="M183.81,126.062c-0.76-0.334-1.611-0.465-2.437-0.409c-0.83,0.032-1.648,0.276-2.385,0.666
										l-0.029-0.051c0.136-0.189,0.304-0.341,0.475-0.498c0.186-0.125,0.376-0.254,0.582-0.354
										c0.406-0.224,0.867-0.308,1.324-0.349c0.459-0.019,0.925,0.027,1.354,0.195c0.214,0.085,0.421,0.179,0.619,0.289
										c0.186,0.144,0.377,0.264,0.522,0.459L183.81,126.062z"/>
								</g>
							</g>
							<g>
								
									<ellipse transform="matrix(0.9999 -0.0126 0.0126 0.9999 -1.6712 2.2784)" style="opacity:0.6;fill:#FB9C81;" cx="179.338" cy="133.294" rx="1.854" ry="1.035"/>
								
									<ellipse transform="matrix(0.9999 -0.0126 0.0126 0.9999 -1.6674 2.4793)" style="opacity:0.6;fill:#FB9C81;" cx="195.228" cy="133.093" rx="1.854" ry="1.035"/>
							</g>
							<g>
								<path style="fill:#0A2D4D;" d="M190.568,134.865c0,1.317-1.475,2.384-3.295,2.384c-1.82,0-3.295-1.067-3.295-2.384H190.568z
									"/>
								<path style="fill:#FFFFFF;" d="M188.396,135.639h-2.247c-0.464,0-0.89-0.212-1.103-0.549l-0.142-0.225h4.738l-0.142,0.225
									C189.286,135.427,188.861,135.639,188.396,135.639z"/>
								<g>
									<defs>
										<path id="SVGID_00000015316152862270762800000015764690161950665140_" d="M190.568,134.865
											c0,1.317-1.475,2.384-3.295,2.384c-1.82,0-3.295-1.067-3.295-2.384H190.568z"/>
									</defs>
									<clipPath id="SVGID_00000136383213883178811070000002343740495438951605_">
										<use xlink:href="#SVGID_00000015316152862270762800000015764690161950665140_"  style="overflow:visible;"/>
									</clipPath>
									
										<ellipse style="clip-path:url(#SVGID_00000136383213883178811070000002343740495438951605_);fill:#FE7D7E;" cx="187.273" cy="136.867" rx="1.896" ry="0.581"/>
								</g>
							</g>
						</g>
						<path style="fill:#FF5D6C;" d="M180.751,111.488c0,0-0.114,10.744,8.811,12.699c8.925,1.955,9.57,5.702,9.57,5.702
							s3.817-6.745,1.6-12.83C198.516,110.974,186.306,107.886,180.751,111.488z"/>
						<path style="fill:#FF5D6C;" d="M182.857,119.063c0,0-3.34,8.183-7.329,10.985c0,0-3.903-6.693-0.067-13.837
							C179.296,109.068,186.451,109.759,182.857,119.063z"/>
					</g>
				</g>
				<circle style="fill:#FDB300;" cx="211.254" cy="154.01" r="5.814"/>
			</g>
		</g>
	</g>
</g>
</svg>
